<svg version="1.1" xmlns="http://www.w3.org/2000/svg" xmlns:xlink="http://www.w3.org/1999/xlink" width="445.08979" height="142.33401" viewBox="0,0,445.08979,142.33401"><defs><linearGradient x1="149.04755" y1="189.58693" x2="31.59711" y2="152.93715" gradientUnits="userSpaceOnUse" id="color-1"><stop offset="0" stop-color="#00b5ff"/><stop offset="1" stop-color="#00e6ff"/></linearGradient><linearGradient x1="38.43709" y1="234.31262" x2="60.44421" y2="231.58802" gradientUnits="userSpaceOnUse" id="color-2"><stop offset="0" stop-color="#00b5ff"/><stop offset="1" stop-color="#00e6ff"/></linearGradient><linearGradient x1="153.42703" y1="127.04191" x2="175.43415" y2="124.31731" gradientUnits="userSpaceOnUse" id="color-3"><stop offset="0" stop-color="#00b5ff"/><stop offset="1" stop-color="#00e6ff"/></linearGradient></defs><g transform="translate(-23.93794,-105.03328)"><g data-paper-data="{&quot;isPaintingLayer&quot;:true}" fill-rule="nonzero" stroke-linejoin="miter" stroke-miterlimit="10" stroke-dasharray="" stroke-dashoffset="0" style="mix-blend-mode: normal"><path d="M45.64151,158.63361c8.12658,-6.24635 9.73853,-8.07135 14.54597,-13.66627c4.80745,-5.59489 5.65896,-6.63684 10.61081,-15.61115c5.82799,-10.56218 9.62284,-23.63856 14.9582,-24.3037c4.80266,-0.53491 8.85167,10.20598 15.35765,19.24978c6.31441,8.77755 6.7623,9.86197 13.84984,16.38985c7.08755,6.52787 10.18588,9.69454 19.81395,14.61565c9.92014,5.07042 21.06789,6.13995 21.27042,11.40864c0.07368,4.49848 -13.04617,11.59333 -22.61069,18.94485c-8.12662,6.24636 -9.08796,6.56327 -14.33533,11.99329c-5.24736,5.43 -5.57085,6.07233 -10.52266,15.04663c-5.82798,10.56223 -10.93843,23.72986 -15.39673,24.33418c-4.83312,0.0964 -8.41316,-10.23637 -14.91911,-19.28021c-6.3144,-8.77752 -7.13067,-10.20648 -13.81946,-15.95134c-6.68879,-5.74482 -9.60763,-7.51785 -19.23569,-12.43897c-9.92014,-5.07042 -21.06789,-6.13995 -21.27042,-11.40864c-0.07372,-4.49847 12.13864,-11.971 21.70317,-19.32256z" data-paper-data="{&quot;index&quot;:null}" fill="url(#color-1)" stroke="#000000" stroke-width="0" stroke-linecap="round"/><path d="M82.51562,164.78614c-4.023,0.49807 -4.52107,-3.52493 -4.52107,-3.52493l-0.49758,-4.06948c-0.85328,-3.5823 -1.44214,-7.22912 -1.89828,-10.88329c0,0 -0.49807,-4.023 3.52493,-4.52107c4.023,-0.49807 4.52107,3.52493 4.52107,3.52493c0.4303,3.50676 1.01223,7.00295 1.83088,10.43986l0.56497,4.51291c0,0 0.49807,4.023 -3.52493,4.52107z" fill="#005d82" stroke="none" stroke-width="0.5" stroke-linecap="butt"/><path d="M100.41798,162.22598c-4.023,0.49807 -4.52107,-3.52493 -4.52107,-3.52493l-0.49757,-4.06948c-0.85329,-3.58231 -1.44214,-7.22912 -1.89829,-10.88329c0,0 -0.49807,-4.023 3.52493,-4.52107c4.023,-0.49807 4.52107,3.52493 4.52107,3.52493c0.43029,3.50676 1.01223,7.00295 1.83088,10.43986l0.56497,4.51291c0,0 0.49807,4.023 -3.52493,4.52107z" fill="#005d82" stroke="none" stroke-width="0.5" stroke-linecap="butt"/><path d="M101.75561,172.09921c0,0 -5.15041,3.76507 -9.81492,4.37094c-4.53588,0.58915 -10.24636,-1.47846 -10.24636,-1.47846" fill="none" stroke="#005d82" stroke-width="5.5" stroke-linecap="round"/><path d="M60.44421,231.58802c0.7408,5.98361 -3.58512,11.44419 -9.66222,12.19658c-6.07711,0.75238 -11.6041,-3.48837 -12.3449,-9.47197c-0.7408,-5.9836 3.58513,-11.4442 9.66221,-12.19658c6.07711,-0.75238 11.6041,3.48838 12.3449,9.47198z" fill="url(#color-2)" stroke="none" stroke-width="0" stroke-linecap="butt"/><path d="M164.28431,173.97612v-42.38394h9.8355v34.37357h21.24267v8.01036zM200.84683,173.97612v-42.38394h9.8355v42.38394zM241.18419,174.6859c-3.3461,0 -6.42181,-0.52389 -9.22713,-1.57165c-2.80532,-1.08157 -5.25574,-2.60253 -7.3513,-4.56287c-2.06174,-1.99415 -3.66719,-4.32627 -4.81635,-6.99639c-1.14916,-2.67011 -1.72375,-5.59374 -1.72375,-8.77084c0,-3.1771 0.57459,-6.10073 1.72375,-8.77084c1.14916,-2.67011 2.77151,-4.98536 4.86706,-6.94569c2.09556,-1.99415 4.54598,-3.5151 7.3513,-4.56287c2.83912,-1.08157 5.94863,-1.62235 9.32852,-1.62235c3.75169,0 7.13159,0.62529 10.1397,1.87584c3.00811,1.25056 5.54304,3.05881 7.60477,5.42474l-6.28661,5.83032c-1.52095,-1.62235 -3.194,-2.82221 -5.01915,-3.59959c-1.82515,-0.77738 -3.80239,-1.16606 -5.93172,-1.16606c-2.06174,0 -3.93758,0.32109 -5.62753,0.96327c-1.68996,0.64218 -3.16021,1.57165 -4.41077,2.78842c-1.21676,1.18297 -2.16313,2.60253 -2.83912,4.25868c-0.67599,1.65615 -1.01397,3.4982 -1.01397,5.52613c0,1.99415 0.33798,3.81929 1.01397,5.47544c0.67599,1.65615 1.62235,3.09261 2.83912,4.30937c1.25056,1.21676 2.70392,2.16312 4.36007,2.83911c1.68996,0.64218 3.53199,0.96327 5.52613,0.96327c1.96034,0 3.85308,-0.30419 5.67823,-0.91257c1.82515,-0.64218 3.6165,-1.72375 5.37405,-3.2447l5.57683,7.09779c-2.29833,1.72375 -4.98535,3.05881 -8.06106,4.00518c-3.04191,0.91257 -6.06692,1.36886 -9.07503,1.36886zM249.34665,168.04439v-15.91932h8.97363v17.18679zM296.42397,131.59218h9.83551v42.38394h-9.83551zM277.20924,173.97612h-9.8355v-42.38394h9.8355zM297.18445,156.58654h-20.73568v-8.26385h20.73568zM325.05604,173.97612v-34.37357h-13.5365v-8.01036h36.9085v8.01036h-13.5365v34.37357zM391.40997,174.6859c-3.3461,0 -6.4387,-0.54078 -9.27782,-1.62235c-2.83912,-1.08157 -5.30644,-2.60253 -7.40198,-4.56287c-2.06174,-1.99415 -3.66719,-4.32628 -4.81635,-6.99639c-1.14916,-2.67011 -1.72375,-5.57683 -1.72375,-8.72014c0,-3.14331 0.57459,-6.05003 1.72375,-8.72014c1.14916,-2.67011 2.77151,-4.98536 4.86706,-6.94569c2.09555,-1.99415 4.54596,-3.53199 7.35128,-4.61357c2.83912,-1.08157 5.91482,-1.62235 9.22713,-1.62235c3.3461,0 6.42181,0.54078 9.22713,1.62235c2.80532,1.08157 5.23885,2.61942 7.30058,4.61357c2.09555,1.96034 3.71789,4.27558 4.86706,6.94569c1.18297,2.63632 1.77445,5.54304 1.77445,8.72014c0,3.14331 -0.59148,6.06692 -1.77445,8.77084c-1.14916,2.67011 -2.77151,4.98536 -4.86706,6.94569c-2.06174,1.96034 -4.49526,3.48129 -7.30058,4.56287c-2.80532,1.08157 -5.86412,1.62235 -9.17643,1.62235zM391.35928,166.37135c1.89275,0 3.63339,-0.3211 5.22194,-0.96327c1.58856,-0.67599 2.99121,-1.60545 4.20797,-2.78842c1.21676,-1.21676 2.14624,-2.65322 2.78842,-4.30937c0.67599,-1.65615 1.01397,-3.4982 1.01397,-5.52613c0,-2.02794 -0.33799,-3.86999 -1.01397,-5.52613c-0.64218,-1.65615 -1.55475,-3.0757 -2.73772,-4.25868c-1.18297,-1.21676 -2.58562,-2.14624 -4.20798,-2.78842c-1.62235,-0.64218 -3.37989,-0.96327 -5.27264,-0.96327c-1.89275,0 -3.65029,0.32109 -5.27264,0.96327c-1.58856,0.64218 -2.99121,1.57165 -4.20798,2.78842c-1.18297,1.18297 -2.11243,2.60253 -2.78842,4.25868c-0.67599,1.65615 -1.01397,3.4982 -1.01397,5.52613c0,1.99415 0.33798,3.83618 1.01397,5.52613c0.67599,1.65615 1.60545,3.09261 2.78842,4.30937c1.18297,1.18297 2.58562,2.11243 4.20798,2.78842c1.62235,0.64218 3.37989,0.96327 5.27264,0.96327zM430.99213,150.65481h20.33009v7.90897h-20.33009zM431.75261,173.97612h-9.8355v-42.38394h32.04145v7.85827h-22.20594z" fill="#ffffff" stroke="none" stroke-width="1" stroke-linecap="square"/><path d="M176.5364,246.65751v-34.37358h-13.5365v-8.01036h36.9085v8.01036h-13.5365v34.37358zM234.22587,204.27357h9.83551v42.38394h-9.83551zM215.01111,246.65751h-9.8355v-42.38394h9.8355zM234.98635,229.26793h-20.73572v-8.26386h20.73572zM263.11144,221.35896h20.38079v7.60477h-20.38079zM263.82122,238.79925h23.06782v7.85827h-32.80193v-42.38394h32.04145v7.85827h-22.30734zM325.77864,247.36729c-3.4137,0 -6.6753,-0.43938 -9.78481,-1.31816c-3.0757,-0.91257 -5.57683,-2.09554 -7.50338,-3.54889l3.3461,-7.40198c1.82515,1.28437 3.97139,2.34903 6.43871,3.19401c2.50113,0.81117 5.01915,1.21676 7.55407,1.21676c1.92654,0 3.48129,-0.18589 4.66427,-0.55768c1.21676,-0.40559 2.09554,-0.94637 2.63632,-1.62235c0.57459,-0.67599 0.86187,-1.45335 0.86187,-2.33213c0,-1.14916 -0.43938,-2.04485 -1.31816,-2.68702c-0.87878,-0.67599 -2.04485,-1.21676 -3.4982,-1.62235c-1.45335,-0.43938 -3.05881,-0.84498 -4.81635,-1.21677c-1.75754,-0.40559 -3.5151,-0.87878 -5.27264,-1.41955c-1.75754,-0.57459 -3.363,-1.30126 -4.81635,-2.18004c-1.45335,-0.91257 -2.63632,-2.09554 -3.5489,-3.54889c-0.91257,-1.45335 -1.36886,-3.31231 -1.36886,-5.57683c0,-2.39974 0.65908,-4.59666 1.97724,-6.59081c1.31816,-2.02794 3.2954,-3.63338 5.93172,-4.81635c2.63632,-1.18297 5.94863,-1.77445 9.93691,-1.77445c2.67011,0 5.28954,0.3211 7.85826,0.96327c2.60253,0.60838 4.90085,1.53786 6.895,2.78842l-3.04191,7.45268c-1.99415,-1.14916 -3.98827,-1.99415 -5.98242,-2.53493c-1.96034,-0.54078 -3.88688,-0.81117 -5.77963,-0.81117c-1.89275,0 -3.4475,0.2197 -4.66426,0.65908c-1.21676,0.43938 -2.09555,1.01397 -2.63632,1.72375c-0.50698,0.70978 -0.76048,1.53786 -0.76048,2.48423c0,1.08157 0.43938,1.96034 1.31816,2.63632c0.91257,0.64218 2.09554,1.16606 3.54889,1.57165c1.45335,0.40559 3.05881,0.81117 4.81635,1.21676c1.75754,0.40559 3.5151,0.87878 5.27264,1.41956c1.75754,0.50698 3.36301,1.21676 4.81636,2.12934c1.45335,0.87878 2.61941,2.04485 3.49819,3.4982c0.91257,1.45335 1.36886,3.27849 1.36886,5.47543c0,2.39974 -0.65908,4.59666 -1.97724,6.5908c-1.31816,1.96034 -3.31231,3.5489 -5.98242,4.76566c-2.63632,1.18297 -5.96551,1.77445 -9.9876,1.77445zM358.62243,246.65751v-34.37358h-13.5365v-8.01036h36.9085v8.01036h-13.5365v34.37358zM379.56494,246.65751l18.91054,-42.38394h9.68341l18.96124,42.38394h-10.29179l-15.51374,-37.41549h3.85309l-15.56443,37.41549zM389.04556,237.58248l2.58562,-7.45268h21.80035l2.63632,7.45268zM431.51084,246.65751v-42.38394h18.35286c3.78548,0 7.04709,0.62529 9.78481,1.87584c2.77151,1.21676 4.90085,2.97431 6.38801,5.27264c1.48716,2.29833 2.23073,5.03606 2.23073,8.21316c0,3.1771 -0.74357,5.91482 -2.23073,8.21316c-1.48716,2.26452 -3.6165,4.00518 -6.38801,5.22194c-2.73772,1.18297 -5.99933,1.77445 -9.78481,1.77445h-12.87742l4.36007,-4.30938v16.12212zM458.43174,246.65751l-10.59598,-15.36164h10.49459l10.69738,15.36164zM441.34635,231.65076l-4.36007,-4.61357h12.31973c3.04191,0 5.30644,-0.64217 6.7936,-1.92654c1.48716,-1.31816 2.23074,-3.14331 2.23074,-5.47544c0,-2.33213 -0.74358,-4.14037 -2.23074,-5.42474c-1.48716,-1.28437 -3.75169,-1.92654 -6.7936,-1.92654h-12.31973l4.36007,-4.66426z" fill="#ffffff" stroke="none" stroke-width="1" stroke-linecap="square"/><path d="M175.43415,124.31731c0.7408,5.98361 -3.58512,11.4442 -9.66221,12.19658c-6.07711,0.75238 -11.6041,-3.48837 -12.3449,-9.47198c-0.7408,-5.9836 3.58513,-11.44419 9.66222,-12.19658c6.07711,-0.75238 11.6041,3.48837 12.3449,9.47197z" fill="url(#color-3)" stroke="none" stroke-width="0" stroke-linecap="butt"/></g></g></svg>